<?xml version="1.0" encoding="iso-8859-1"?>
<!-- Generator: Adobe Illustrator 18.0.0, SVG Export Plug-In . SVG Version: 6.00 Build 0)  -->
<!DOCTYPE svg PUBLIC "-//W3C//DTD SVG 1.1//EN" "http://www.w3.org/Graphics/SVG/1.1/DTD/svg11.dtd">
<svg version="1.1" id="Capa_1" xmlns="http://www.w3.org/2000/svg" xmlns:xlink="http://www.w3.org/1999/xlink" x="0px" y="0px" viewBox="0 0 59.997 59.997" style="enable-background:new 0 0 59.997 59.997;" xml:space="preserve">
	<g>
		<path fill="#007eff" d="M3.413,24.499h35.586c0.552,0,1-0.448,1-1s-0.448-1-1-1H3.413l10.293-10.293c0.391-0.391,0.391-1.023,0-1.414
		s-1.023-0.391-1.414,0l-12,12c-0.092,0.092-0.165,0.203-0.216,0.325c-0.101,0.245-0.101,0.52,0,0.764
		c0.051,0.122,0.124,0.233,0.216,0.325l12,12c0.195,0.195,0.451,0.293,0.707,0.293s0.512-0.098,0.707-0.293
		c0.391-0.391,0.391-1.023,0-1.414L3.413,24.499z" />
		<path fill="#007eff" d="M59.921,36.881c0.101-0.245,0.101-0.52,0-0.764c-0.051-0.122-0.124-0.233-0.216-0.325l-12-12
		c-0.391-0.391-1.023-0.391-1.414,0s-0.391,1.023,0,1.414l10.293,10.293H20.999c-0.552,0-1,0.448-1,1s0.448,1,1,1h35.586
		L46.292,47.792c-0.391,0.391-0.391,1.023,0,1.414c0.195,0.195,0.451,0.293,0.707,0.293s0.512-0.098,0.707-0.293l12-12
		C59.798,37.114,59.871,37.003,59.921,36.881z" />
	</g>
</svg>
