<svg height="512" viewBox="0 0 512 512" width="512" xmlns="http://www.w3.org/2000/svg">
    <g id="More">
        <path fill="#b3b3b3" d="m256 192a64 64 0 1 0 64 64 64.072 64.072 0 0 0 -64-64zm0 112a48 48 0 1 1 48-48 48.055 48.055 0 0 1 -48 48z" />
        <path fill="#b3b3b3" d="m72 192a64 64 0 1 0 64 64 64.072 64.072 0 0 0 -64-64zm0 112a48 48 0 1 1 48-48 48.055 48.055 0 0 1 -48 48z" />
        <path fill="#b3b3b3" d="m440 192a64 64 0 1 0 64 64 64.072 64.072 0 0 0 -64-64zm0 112a48 48 0 1 1 48-48 48.055 48.055 0 0 1 -48 48z" />
    </g>
</svg>