<?xml version="1.0" encoding="iso-8859-1"?>
<!-- Generator: Adobe Illustrator 19.0.0, SVG Export Plug-In . SVG Version: 6.00 Build 0)  -->
<svg version="1.1" id="Capa_1" xmlns="http://www.w3.org/2000/svg" xmlns:xlink="http://www.w3.org/1999/xlink" x="0px" y="0px" viewBox="0 0 507.992 507.992" style="enable-background:new 0 0 507.992 507.992;" xml:space="preserve">
	<g>
		<g>
			<path fill="#b3b3b3" d="M484.004,368.219c-15.5-15.5-36.5-23.8-58.7-23.9l-200-200c10.6-39.6-0.5-81.7-29.7-110.8
			c-30.3-30.5-75.7-43.7-128.6-24.4l73.3,73.3l-9.7,48.3l-48.3,9.7l-73.3-73.3c-19.2,52.4-6.1,98.3,24.2,128.6
			c29.1,29.1,71.2,40.3,110.8,29.7l200,200c-0.2,22,8.4,43.2,23.9,58.7c33.6,33.6,86.1,29.8,116,0
			C516.004,452.219,516.004,400.219,484.004,368.219z M472.404,472.619c-25.6,25.6-67.2,25.6-92.8,0c-22.8-22.8-18.8-53.6-18.8-53.6
			l-212.1-212.2c-37.7,14.2-77.9,3.3-103.9-22.7c-22.6-22.7-32.6-54.4-27.5-85.5l59.6,59.6l67.6-13.5l13.5-67.6l-59.6-59.6
			c31.1-5.2,62.8,4.8,85.5,27.5c26,26,36.8,67.7,22.7,103.9l212.1,212.1c0,0,30.5-4.3,53.6,18.8
			C498.004,405.419,498.004,447.019,472.404,472.619z" />
		</g>
	</g>
	<g>
		<g>
			<path fill="#007eff" d="M455.004,397.219c-16-16-42-16-58,0s-16,42,0,58c19.1,19.1,45.1,12.9,58,0
			C471.004,439.219,471.004,413.219,455.004,397.219z M443.404,443.619c-9.3,9.3-25.5,9.3-34.8,0c-9.6-9.6-9.6-25.2,0-34.8
			c13.3-13.3,30-4.8,34.8,0C453.004,418.419,453.004,434.019,443.404,443.619z" />
		</g>
	</g>
	<g>
		<g>
			<rect fill="#007eff" x="245.628" y="245.85" transform="matrix(0.7071 -0.7071 0.7071 0.7071 -105.2961 253.8932)" width="16.4" height="16.4" />
		</g>
	</g>
	<g>
		<g>
			<rect fill="#007eff" x="268.882" y="269.006" transform="matrix(0.7072 -0.707 0.707 0.7072 -114.8587 277.0633)" width="16.4" height="16.4" />
		</g>
	</g>
	<g>
		<g>
			<rect fill="#007eff" x="222.5" y="222.58" transform="matrix(0.7071 -0.7071 0.7071 0.7071 -95.6155 230.7229)" width="16.4" height="16.4" />
		</g>
	</g>
</svg>
